<svg width="16" height="16" viewBox="0 0 16 16" fill="none" xmlns="http://www.w3.org/2000/svg">
<g clip-path="url(#clip0_141_835)">
<path d="M0.666672 0.666687H3.33334L5.12001 9.59335C5.18097 9.90028 5.34794 10.176 5.5917 10.3722C5.83546 10.5684 6.14047 10.6727 6.45334 10.6667H12.9333C13.2462 10.6727 13.5512 10.5684 13.795 10.3722C14.0387 10.176 14.2057 9.90028 14.2667 9.59335L15.3333 4.00002H4.00001M6.66667 14C6.66667 14.3682 6.3682 14.6667 6.00001 14.6667C5.63182 14.6667 5.33334 14.3682 5.33334 14C5.33334 13.6318 5.63182 13.3334 6.00001 13.3334C6.3682 13.3334 6.66667 13.6318 6.66667 14ZM14 14C14 14.3682 13.7015 14.6667 13.3333 14.6667C12.9651 14.6667 12.6667 14.3682 12.6667 14C12.6667 13.6318 12.9651 13.3334 13.3333 13.3334C13.7015 13.3334 14 13.6318 14 14Z" stroke="#1E1E1E" stroke-width="1.4" stroke-linecap="round" stroke-linejoin="round"/>
</g>
<defs>
<clipPath id="clip0_141_835">
<rect width="16" height="16" fill="white"/>
</clipPath>
</defs>
</svg>
